<svg width="194" height="206" viewBox="0 0 194 206" fill="none" xmlns="http://www.w3.org/2000/svg">
<g opacity="0.64">
<path d="M164.415 102.749C168.101 138.964 141.417 171.696 104.336 175.471C67.2554 179.245 34.5232 152.561 30.8369 116.346C27.1506 80.131 53.8348 47.3989 90.9156 43.6245C127.996 39.85 160.729 66.5342 164.415 102.749Z" stroke="#0057FF" stroke-width="41.5306"/>
<g filter="url(#filter0_bi_3614_4080)">
<path fill-rule="evenodd" clip-rule="evenodd" d="M56.4508 12.7118L118.607 6.38489C123.38 5.89897 127.32 5.49792 130.555 5.43346C133.916 5.36652 137.039 5.63909 140.066 6.81247C144.76 8.63212 148.758 11.8912 151.486 16.1225C153.246 18.8511 154.142 21.8553 154.753 25.1606C155.342 28.3429 155.743 32.2821 156.229 37.0551L160.142 75.4939C160.628 80.2669 161.029 84.2061 161.093 87.4418C161.16 90.8025 160.887 93.9257 159.714 96.9528C157.894 101.647 154.635 105.645 150.404 108.373C147.675 110.132 144.671 111.028 141.366 111.64C138.184 112.229 134.244 112.63 129.471 113.116L67.3147 119.442C62.5418 119.928 58.6025 120.329 55.3668 120.394C52.0062 120.461 48.8829 120.188 45.8559 119.015C41.1616 117.195 37.1639 113.936 34.4357 109.705C32.6765 106.976 31.7802 103.972 31.1686 100.667C30.5798 97.4844 30.1788 93.5451 29.6931 88.7721L25.7804 50.3336C25.2945 45.5606 24.8934 41.6213 24.829 38.3856C24.762 35.0249 25.0346 31.9016 26.208 28.8746C28.0276 24.1803 31.2867 20.1826 35.518 17.4544C38.2466 15.6952 41.2509 14.7989 44.5561 14.1873C47.7384 13.5985 51.6777 13.1975 56.4508 12.7118ZM72.1539 35.0716C71.8206 31.7969 68.8957 29.4124 65.6209 29.7457C62.3461 30.079 59.9616 33.004 60.295 36.2787L60.8985 42.2082C61.2319 45.483 64.1568 47.8675 67.4316 47.5341C70.7063 47.2008 73.0908 44.2759 72.7575 41.0011L72.1539 35.0716ZM74.87 61.7543C74.5366 58.4795 71.6117 56.095 68.3369 56.4284C65.0622 56.7617 62.6777 59.6866 63.011 62.9614L63.6146 68.8909C63.9479 72.1657 66.8728 74.5501 70.1476 74.2168C73.4224 73.8835 75.8069 70.9585 75.4735 67.6838L74.87 61.7543ZM77.586 88.437C77.2526 85.1622 74.3277 82.7777 71.0529 83.111C67.7782 83.4444 65.3937 86.3693 65.727 89.6441L66.3306 95.5736C66.6639 98.8483 69.5889 101.233 72.8636 100.899C76.1384 100.566 78.5229 97.6412 78.1895 94.3664L77.586 88.437Z" fill="white" fill-opacity="0.03"/>
</g>
</g>
<defs>
<filter id="filter0_bi_3614_4080" x="-36.3857" y="-55.7842" width="258.693" height="237.396" filterUnits="userSpaceOnUse" color-interpolation-filters="sRGB">
<feFlood flood-opacity="0" result="BackgroundImageFix"/>
<feGaussianBlur in="BackgroundImageFix" stdDeviation="30.603"/>
<feComposite in2="SourceAlpha" operator="in" result="effect1_backgroundBlur_3614_4080"/>
<feBlend mode="normal" in="SourceGraphic" in2="effect1_backgroundBlur_3614_4080" result="shape"/>
<feColorMatrix in="SourceAlpha" type="matrix" values="0 0 0 0 0 0 0 0 0 0 0 0 0 0 0 0 0 0 127 0" result="hardAlpha"/>
<feOffset dy="1.39105"/>
<feGaussianBlur stdDeviation="0.695523"/>
<feComposite in2="hardAlpha" operator="arithmetic" k2="-1" k3="1"/>
<feColorMatrix type="matrix" values="0 0 0 0 1 0 0 0 0 1 0 0 0 0 1 0 0 0 0.3 0"/>
<feBlend mode="normal" in2="shape" result="effect2_innerShadow_3614_4080"/>
</filter>
</defs>
</svg>
