<svg width="236" height="229" viewBox="0 0 236 229" fill="none" xmlns="http://www.w3.org/2000/svg">
<g opacity="0.64">
<line x1="56.3027" y1="149.436" x2="149.109" y2="56.6289" stroke="#01E676" stroke-width="111.77" stroke-linecap="round"/>
<g filter="url(#filter0_bi_3614_4087)">
<path fill-rule="evenodd" clip-rule="evenodd" d="M74.9863 13C75.0842 13 75.1822 13 75.2803 13H110.296C110.394 13 110.492 13 110.59 13C112.915 12.9997 115.18 12.9995 117.098 13.1562C119.205 13.3283 121.69 13.7344 124.191 15.0087C127.659 16.7756 130.478 19.5949 132.245 23.0626C133.519 25.5636 133.925 28.0491 134.098 30.1555C134.254 32.0736 134.254 34.3386 134.254 36.6642V72.2672C134.254 74.5929 134.254 76.8578 134.098 78.776C133.925 80.8824 133.519 83.3678 132.245 85.8689C130.478 89.3366 127.659 92.1559 124.191 93.9228C121.69 95.1971 119.205 95.6032 117.098 95.7753C115.18 95.932 112.915 95.9317 110.59 95.9314H74.9865C72.6608 95.9317 70.3959 95.932 68.4778 95.7753C66.3714 95.6032 63.8859 95.1971 61.3848 93.9228C57.9172 92.1559 55.0979 89.3366 53.331 85.8689C52.0566 83.3678 51.6506 80.8823 51.4785 78.776C51.3217 76.8579 51.322 74.593 51.3223 72.2674C51.3223 72.1695 51.3223 72.0715 51.3223 71.9735V36.958C51.3223 36.8599 51.3223 36.7619 51.3223 36.6641C51.322 34.3385 51.3217 32.0736 51.4785 30.1555C51.6506 28.0491 52.0566 25.5636 53.331 23.0626C55.0978 19.5949 57.9172 16.7756 61.3848 15.0087C63.8859 13.7344 66.3714 13.3283 68.4778 13.1562C70.3959 12.9995 72.6607 12.9997 74.9863 13ZM176.347 13H211.95C214.276 12.9997 216.541 12.9995 218.459 13.1562C220.565 13.3283 223.051 13.7344 225.552 15.0087C229.019 16.7756 231.839 19.5949 233.606 23.0626C234.88 25.5636 235.286 28.0491 235.458 30.1555C235.615 32.0736 235.615 34.3384 235.614 36.6639V72.2676C235.615 74.5931 235.615 76.8579 235.458 78.776C235.286 80.8824 234.88 83.3678 233.606 85.8689C231.839 89.3366 229.019 92.1559 225.552 93.9228C223.051 95.1971 220.565 95.6032 218.459 95.7753C216.541 95.932 214.276 95.9317 211.95 95.9314H176.347C174.021 95.9317 171.756 95.932 169.838 95.7753C167.732 95.6032 165.246 95.1971 162.745 93.9228C159.278 92.1559 156.458 89.3366 154.692 85.8689C153.417 83.3678 153.011 80.8824 152.839 78.776C152.682 76.8578 152.683 74.5929 152.683 72.2672V36.6642C152.683 34.3386 152.682 32.0736 152.839 30.1555C153.011 28.0491 153.417 25.5636 154.692 23.0626C156.458 19.5949 159.278 16.7756 162.745 15.0087C165.246 13.7344 167.732 13.3283 169.838 13.1562C171.756 12.9995 174.021 12.9997 176.347 13ZM74.9865 114.361H110.59C112.915 114.36 115.18 114.36 117.098 114.517C119.205 114.689 121.69 115.095 124.191 116.369C127.659 118.136 130.478 120.955 132.245 124.423C133.519 126.924 133.925 129.41 134.098 131.516C134.254 133.434 134.254 135.699 134.254 138.025V173.628C134.254 175.953 134.254 178.218 134.098 180.137C133.925 182.243 133.519 184.728 132.245 187.229C130.478 190.697 127.659 193.516 124.191 195.283C121.69 196.558 119.205 196.964 117.098 197.136C115.18 197.293 112.915 197.292 110.59 197.292H74.9862C72.6606 197.292 70.3958 197.293 68.4778 197.136C66.3714 196.964 63.8859 196.558 61.3848 195.283C57.9172 193.516 55.0979 190.697 53.331 187.229C52.0566 184.728 51.6506 182.243 51.4785 180.137C51.3217 178.218 51.322 175.954 51.3223 173.628V138.025C51.322 135.699 51.3217 133.434 51.4785 131.516C51.6506 129.41 52.0566 126.924 53.331 124.423C55.0978 120.955 57.9172 118.136 61.3848 116.369C63.8859 115.095 66.3714 114.689 68.4778 114.517C70.3959 114.36 72.6608 114.36 74.9865 114.361ZM176.347 114.361H211.95C214.276 114.36 216.541 114.36 218.459 114.517C220.565 114.689 223.051 115.095 225.552 116.369C229.019 118.136 231.839 120.955 233.606 124.423C234.88 126.924 235.286 129.41 235.458 131.516C235.615 133.434 235.615 135.699 235.614 138.024V173.628C235.615 175.954 235.615 178.218 235.458 180.137C235.286 182.243 234.88 184.728 233.606 187.229C231.839 190.697 229.019 193.516 225.552 195.283C223.051 196.558 220.565 196.964 218.459 197.136C216.541 197.293 214.276 197.292 211.95 197.292H176.347C174.021 197.292 171.756 197.293 169.838 197.136C167.732 196.964 165.246 196.558 162.745 195.283C159.278 193.516 156.458 190.697 154.692 187.229C153.417 184.728 153.011 182.243 152.839 180.137C152.682 178.218 152.683 175.953 152.683 173.628V138.025C152.683 135.699 152.682 133.434 152.839 131.516C153.011 129.41 153.417 126.924 154.692 124.423C156.458 120.955 159.278 118.136 162.745 116.369C165.246 115.095 167.732 114.689 169.838 114.517C171.756 114.36 174.021 114.36 176.347 114.361Z" fill="white" fill-opacity="0.03"/>
</g>
</g>
<defs>
<filter id="filter0_bi_3614_4087" x="-23.7597" y="-62.082" width="334.457" height="334.453" filterUnits="userSpaceOnUse" color-interpolation-filters="sRGB">
<feFlood flood-opacity="0" result="BackgroundImageFix"/>
<feGaussianBlur in="BackgroundImageFix" stdDeviation="37.541"/>
<feComposite in2="SourceAlpha" operator="in" result="effect1_backgroundBlur_3614_4087"/>
<feBlend mode="normal" in="SourceGraphic" in2="effect1_backgroundBlur_3614_4087" result="shape"/>
<feColorMatrix in="SourceAlpha" type="matrix" values="0 0 0 0 0 0 0 0 0 0 0 0 0 0 0 0 0 0 127 0" result="hardAlpha"/>
<feOffset dy="1.70641"/>
<feGaussianBlur stdDeviation="0.853204"/>
<feComposite in2="hardAlpha" operator="arithmetic" k2="-1" k3="1"/>
<feColorMatrix type="matrix" values="0 0 0 0 1 0 0 0 0 1 0 0 0 0 1 0 0 0 0.3 0"/>
<feBlend mode="normal" in2="shape" result="effect2_innerShadow_3614_4087"/>
</filter>
</defs>
</svg>
