<svg width="218" height="232" viewBox="0 0 218 232" fill="none" xmlns="http://www.w3.org/2000/svg">
<g opacity="0.64">
<path d="M148.777 106.352C126.17 121.324 106.789 140.673 91.9043 163.225" stroke="#DF52F1" style="stroke:#DF52F1;stroke:color(display-p3 0.8745 0.3216 0.9451);stroke-opacity:1;" stroke-width="137.051" stroke-linecap="round"/>
<g filter="url(#filter0_bi_3614_4073)">
<path fill-rule="evenodd" clip-rule="evenodd" d="M33.3525 0.117194H93.1339C97.2388 0.117055 100.78 0.116934 103.697 0.355245C106.775 0.606773 109.837 1.16211 112.784 2.6634C117.179 4.90309 120.753 8.47686 122.993 12.8725C124.494 15.8189 125.05 18.8809 125.301 21.9595C125.539 24.8761 125.539 28.4172 125.539 32.5218V32.522V32.5226V46.8391L139.856 46.8391C143.961 46.839 147.502 46.8389 150.419 47.0772C153.497 47.3287 156.559 47.884 159.506 49.3853C163.901 51.625 167.475 55.1988 169.715 59.5944C171.216 62.5409 171.771 65.6029 172.023 68.6814C172.261 71.598 172.261 75.1391 172.261 79.2438V79.244V79.2441V139.026V139.026V139.026C172.261 143.131 172.261 146.672 172.023 149.589C171.771 152.667 171.216 155.729 169.715 158.676C167.475 163.071 163.901 166.645 159.506 168.885C156.559 170.386 153.497 170.941 150.419 171.193C147.502 171.431 143.961 171.431 139.856 171.431H80.0742C75.9694 171.431 72.4282 171.431 69.5115 171.193C66.4329 170.941 63.3709 170.386 60.4245 168.885C56.0289 166.645 52.4551 163.071 50.2154 158.676C48.7141 155.729 48.1588 152.667 47.9072 149.589C47.6689 146.672 47.6691 143.131 47.6692 139.026L47.6692 124.709H33.3526C29.2477 124.709 25.7064 124.709 22.7896 124.471C19.711 124.219 16.649 123.664 13.7026 122.163C9.30694 119.923 5.73317 116.349 3.49347 111.954C1.99219 109.007 1.43685 105.945 1.18532 102.867C0.947012 99.9499 0.947133 96.4087 0.947272 92.3038V32.5224C0.947133 28.4175 0.947012 24.8763 1.18532 21.9595C1.43685 18.8809 1.99219 15.8189 3.49347 12.8725C5.73317 8.47686 9.30694 4.90309 13.7026 2.66339C16.649 1.16211 19.711 0.606773 22.7896 0.355245C25.7063 0.116934 29.2476 0.117055 33.3525 0.117194ZM109.965 46.8391L80.0744 46.8391C75.9695 46.839 72.4283 46.8389 69.5115 47.0772C66.4329 47.3287 63.3709 47.884 60.4245 49.3853C56.0289 51.625 52.4551 55.1988 50.2154 59.5944C48.7141 62.5409 48.1588 65.6028 47.9072 68.6814C47.6689 71.5982 47.6691 75.1394 47.6692 79.2443L47.6692 109.135H33.6526C29.163 109.135 26.2641 109.129 24.0578 108.949C21.9423 108.776 21.158 108.482 20.773 108.286C19.3078 107.54 18.1166 106.348 17.37 104.883C17.1738 104.498 16.8804 103.714 16.7076 101.598C16.5273 99.3921 16.5213 96.4933 16.5213 92.0036V32.8225C16.5213 28.3329 16.5273 25.434 16.7076 23.2277C16.8804 21.1123 17.1738 20.328 17.37 19.9429C18.1165 18.4777 19.3078 17.2865 20.773 16.5399C21.158 16.3437 21.9423 16.0503 24.0578 15.8775C26.2641 15.6972 29.163 15.6912 33.6526 15.6912H92.8337C97.3233 15.6912 100.222 15.6972 102.429 15.8775C104.544 16.0503 105.328 16.3437 105.713 16.5399C107.179 17.2865 108.37 18.4777 109.116 19.9429C109.313 20.328 109.606 21.1123 109.779 23.2277C109.959 25.434 109.965 28.3329 109.965 32.8225V46.8391ZM142.727 95.1629C145.768 92.1219 145.768 87.1915 142.727 84.1504C139.686 81.1094 134.755 81.1094 131.714 84.1504L102.179 113.686L92.1111 103.618C89.0701 100.577 84.1396 100.577 81.0986 103.618C78.0576 106.659 78.0576 111.589 81.0986 114.63L96.6726 130.204C99.7136 133.245 104.644 133.245 107.685 130.204L142.727 95.1629Z" fill="white" fill-opacity="0.03" style="fill:white;fill-opacity:0.03;"/>
</g>
</g>
<defs>
<filter id="filter0_bi_3614_4073" x="-99.5568" y="-100.387" width="372.322" height="372.321" filterUnits="userSpaceOnUse" color-interpolation-filters="sRGB">
<feFlood flood-opacity="0" result="BackgroundImageFix"/>
<feGaussianBlur in="BackgroundImageFix" stdDeviation="50.252"/>
<feComposite in2="SourceAlpha" operator="in" result="effect1_backgroundBlur_3614_4073"/>
<feBlend mode="normal" in="SourceGraphic" in2="effect1_backgroundBlur_3614_4073" result="shape"/>
<feColorMatrix in="SourceAlpha" type="matrix" values="0 0 0 0 0 0 0 0 0 0 0 0 0 0 0 0 0 0 127 0" result="hardAlpha"/>
<feOffset dy="2.28418"/>
<feGaussianBlur stdDeviation="1.14209"/>
<feComposite in2="hardAlpha" operator="arithmetic" k2="-1" k3="1"/>
<feColorMatrix type="matrix" values="0 0 0 0 1 0 0 0 0 1 0 0 0 0 1 0 0 0 0.3 0"/>
<feBlend mode="normal" in2="shape" result="effect2_innerShadow_3614_4073"/>
</filter>
</defs>
</svg>
