<svg width="163" height="194" viewBox="0 0 163 194" fill="none" xmlns="http://www.w3.org/2000/svg">
<g opacity="0.64">
<ellipse cx="98.1977" cy="129.784" rx="64.5512" ry="63.4087" fill="#FF004F"/>
<g filter="url(#filter0_bi_3614_4090)">
<path fill-rule="evenodd" clip-rule="evenodd" d="M86.0203 8.49107C86.4339 5.18203 84.6165 1.99642 81.5575 0.668528C78.4985 -0.659362 74.9302 0.188382 72.7954 2.75024L5.88923 83.0376L5.71717 83.244L5.71711 83.2441C4.55787 84.6347 3.3837 86.0431 2.52882 87.2809C1.72033 88.4514 0.24416 90.7529 0.198549 93.7777C0.146334 97.2405 1.68938 100.535 4.38302 102.712C6.73589 104.613 9.44897 104.952 10.8658 105.081C12.3639 105.216 14.1974 105.216 16.0077 105.216H16.0079L62.5448 105.216L56.0882 156.868C55.6746 160.177 57.492 163.363 60.551 164.691C63.61 166.018 67.1782 165.171 69.3131 162.609L136.392 82.1146L136.392 82.1139C137.551 80.7237 138.725 79.3156 139.58 78.0782C140.388 76.9076 141.864 74.6061 141.91 71.5814C141.962 68.1185 140.419 64.8241 137.725 62.6474C135.373 60.746 132.66 60.4067 131.243 60.2784C129.745 60.1428 127.911 60.1431 126.101 60.1434H126.101L79.5637 60.1435L86.0203 8.49107Z" fill="white" fill-opacity="0.03"/>
</g>
</g>
<defs>
<filter id="filter0_bi_3614_4090" x="-118.891" y="-119.042" width="379.892" height="403.443" filterUnits="userSpaceOnUse" color-interpolation-filters="sRGB">
<feFlood flood-opacity="0" result="BackgroundImageFix"/>
<feGaussianBlur in="BackgroundImageFix" stdDeviation="59.5442"/>
<feComposite in2="SourceAlpha" operator="in" result="effect1_backgroundBlur_3614_4090"/>
<feBlend mode="normal" in="SourceGraphic" in2="effect1_backgroundBlur_3614_4090" result="shape"/>
<feColorMatrix in="SourceAlpha" type="matrix" values="0 0 0 0 0 0 0 0 0 0 0 0 0 0 0 0 0 0 127 0" result="hardAlpha"/>
<feOffset dy="2.70656"/>
<feGaussianBlur stdDeviation="1.35328"/>
<feComposite in2="hardAlpha" operator="arithmetic" k2="-1" k3="1"/>
<feColorMatrix type="matrix" values="0 0 0 0 1 0 0 0 0 1 0 0 0 0 1 0 0 0 0.3 0"/>
<feBlend mode="normal" in2="shape" result="effect2_innerShadow_3614_4090"/>
</filter>
</defs>
</svg>
