<svg width="149" height="38" viewBox="0 0 149 38" fill="none" xmlns="http://www.w3.org/2000/svg">
<rect y="1.86719" width="34.2634" height="34.2634" rx="4.17505" fill="#1758FE"/>
<path d="M28.3155 21.174L27.5761 18.4146L21.3516 20.0824L20.6459 17.4484C19.6376 13.6855 16.5457 11.6909 12.8534 12.6803L11.9993 12.9091C8.30705 13.8984 6.62665 17.1718 7.63491 20.9347L9.08008 26.3281L28.3155 21.174Z" fill="white"/>
<path d="M42.1421 27V24.3981H47.5541C48.9852 24.3981 49.7137 24.0078 49.7137 23.2012V23.045C49.7137 22.5247 49.1933 22.0823 48.1265 21.8482L45.6027 21.2757C43.0788 20.7033 41.8298 19.4544 41.8298 17.5289V17.1907C41.8298 14.7449 43.9895 13.5219 46.4353 13.5219H51.8473V16.1239H46.6174C45.3425 16.1239 44.692 16.4621 44.692 17.1647V17.3208C44.692 18.0493 45.2124 18.3876 46.3832 18.6478L49.2194 19.2983C51.5091 19.8186 52.5759 21.1196 52.5759 22.7588V23.0971C52.5759 25.4909 50.7285 27 47.424 27H42.1421ZM60.8543 27.3122C58.9549 27.3122 57.3937 26.6878 56.1188 25.4388C54.8438 24.1899 54.2194 22.6027 54.2194 20.7033V19.8186C54.2194 17.9192 54.8438 16.332 56.1188 15.0831C57.3937 13.8342 58.9549 13.2097 60.8543 13.2097C62.7277 13.2097 64.3149 13.8342 65.5898 15.0831C66.8648 16.332 67.4893 17.9192 67.4893 19.8186V20.7033C67.4893 22.6027 66.8648 24.1899 65.5898 25.4388C64.3149 26.6878 62.7277 27.3122 60.8543 27.3122ZM60.8543 24.7103C63.17 24.7103 64.5751 23.1491 64.5751 20.6513V19.8707C64.5751 17.3728 63.17 15.8116 60.8543 15.8116C58.5386 15.8116 57.1335 17.3728 57.1335 19.8707V20.6513C57.1335 23.1491 58.5386 24.7103 60.8543 24.7103ZM76.0879 27C72.185 27 69.4529 24.5282 69.4529 20.7033V19.8186C69.4529 15.9938 72.185 13.5219 76.0879 13.5219H79.3923V16.1239H76.1139C73.8242 16.1239 72.3671 17.2687 72.3671 19.8707V20.6513C72.3671 23.2532 73.8242 24.3981 76.1139 24.3981H79.3923V27H76.0879ZM81.8341 27V13.5219H84.6962V27H81.8341ZM83.2652 11.6746C82.1984 11.6746 81.4178 10.9981 81.4178 10.0353V9.593C81.4178 8.63029 82.1984 7.95378 83.2652 7.95378C84.3059 7.95378 85.0865 8.63029 85.0865 9.593V10.0353C85.0865 10.9981 84.3059 11.6746 83.2652 11.6746ZM93.8248 27C89.9219 27 87.1898 24.5282 87.1898 20.7033V19.8186C87.1898 15.9938 89.9219 13.5219 93.8248 13.5219H99.419V27H93.8248ZM93.8508 24.3981H96.5568V16.1239H93.8508C91.5611 16.1239 90.104 17.2687 90.104 19.8707V20.6513C90.104 23.2532 91.5611 24.3981 93.8508 24.3981ZM102.595 27V8.7864H105.457V27H102.595ZM114.585 27C110.683 27 107.95 24.5282 107.95 20.7033V19.8186C107.95 15.9938 110.683 13.5219 114.585 13.5219H117.89V16.1239H114.611C112.322 16.1239 110.865 17.2687 110.865 19.8707V20.6513C110.865 23.2532 112.322 24.3981 114.611 24.3981H117.89V27H114.585ZM126.16 27C122.257 27 119.525 24.5282 119.525 20.7033V19.8186C119.525 15.9938 122.257 13.5219 126.16 13.5219H131.754V27H126.16ZM126.186 24.3981H128.892V16.1239H126.186C123.896 16.1239 122.439 17.2687 122.439 19.8707V20.6513C122.439 23.2532 123.896 24.3981 126.186 24.3981ZM134.93 30.5386V13.5219H140.524C144.427 13.5219 147.159 15.9938 147.159 19.8186V20.7033C147.159 24.5282 144.427 27 140.524 27H137.792V30.5386H134.93ZM140.498 24.3981C142.788 24.3981 144.245 23.2532 144.245 20.6513V19.8707C144.245 17.2687 142.788 16.1239 140.498 16.1239H137.792V24.3981H140.498Z" fill="#102353"/>
</svg>
