<svg width="160" height="160" viewBox="0 0 160 160" fill="none" xmlns="http://www.w3.org/2000/svg">
<path fill-rule="evenodd" clip-rule="evenodd" d="M23.9863 103.771C23.9863 90.6684 34.6079 80.0469 47.7102 80.0469L104.384 80.0469L104.384 127.495L47.7102 127.495C34.6079 127.495 23.9863 116.873 23.9863 103.771Z" fill="#1758FE"/>
<g filter="url(#filter0_bi_3614_3852)">
<path fill-rule="evenodd" clip-rule="evenodd" d="M124.085 44.436C120.482 40.833 114.641 40.833 111.038 44.436C107.435 48.0389 107.435 53.8805 111.038 57.4834C114.641 61.0864 120.482 61.0864 124.085 57.4834C127.688 53.8805 127.688 48.0389 124.085 44.436ZM104.514 37.9122C111.72 30.7063 123.403 30.7063 130.609 37.9122C137.815 45.1182 137.815 56.8013 130.609 64.0072C123.403 71.2131 111.72 71.2131 104.514 64.0072C97.3079 56.8013 97.3079 45.1182 104.514 37.9122ZM93.1269 36.8642C93.3615 39.4011 91.4952 41.6478 88.9583 41.8824C71.3683 43.509 57.5926 58.3139 57.5926 76.3311C57.5926 80.2059 58.2279 83.9229 59.3962 87.3893C59.4333 87.4994 59.4716 87.6119 59.5106 87.7266C59.885 88.8269 60.3247 90.1193 60.4172 91.2888C60.5016 92.3547 60.4247 93.2558 60.161 94.2921C59.8725 95.4254 59.2864 96.5029 58.811 97.3769C58.7649 97.4616 58.7199 97.5444 58.6762 97.6252L51.9607 110.055L73.8476 107.793C73.8973 107.788 73.9484 107.782 74.0006 107.777C74.5491 107.719 75.2298 107.648 75.8973 107.673C76.5074 107.697 77.0216 107.765 77.6167 107.902C78.2699 108.053 78.9785 108.327 79.5762 108.559C79.6375 108.582 79.6976 108.606 79.7564 108.628C83.6089 110.113 87.7987 110.928 92.1899 110.928C110.222 110.928 125.036 97.1299 126.643 79.5191C126.874 76.982 129.118 75.1128 131.656 75.3442C134.193 75.5756 136.062 77.82 135.83 80.3571C133.795 102.675 115.036 120.154 92.1899 120.154C86.6468 120.154 81.3338 119.123 76.4397 117.237C76.0201 117.076 75.777 116.982 75.5978 116.918C75.5759 116.91 75.557 116.903 75.5408 116.898C75.5349 116.898 75.5287 116.899 75.522 116.899C75.376 116.91 75.1768 116.931 74.7961 116.97L51.0168 119.428C50.0287 119.53 48.998 119.637 48.1358 119.647C47.279 119.657 45.7346 119.609 44.2538 118.706C42.5181 117.647 41.3358 115.878 41.0211 113.869C40.7526 112.156 41.2983 110.71 41.6351 109.922C41.9741 109.13 42.4668 108.218 42.9391 107.344C42.9641 107.298 42.9891 107.252 43.0139 107.206L50.5591 93.2399C50.8888 92.6297 51.065 92.3014 51.1836 92.0569C51.1898 92.044 51.1956 92.032 51.2009 92.0208C51.192 91.9888 51.1812 91.951 51.1682 91.907C51.0683 91.569 50.9146 91.1107 50.6536 90.3362C49.1693 85.9326 48.3667 81.2208 48.3667 76.3311C48.3667 53.5035 65.817 34.757 88.1088 32.6956C90.6457 32.461 92.8924 34.3274 93.1269 36.8642Z" fill="white" fill-opacity="0.03"/>
</g>
<defs>
<filter id="filter0_bi_3614_3852" x="-24.7487" y="-33.1901" width="226.46" height="219.044" filterUnits="userSpaceOnUse" color-interpolation-filters="sRGB">
<feFlood flood-opacity="0" result="BackgroundImageFix"/>
<feGaussianBlur in="BackgroundImageFix" stdDeviation="32.8489"/>
<feComposite in2="SourceAlpha" operator="in" result="effect1_backgroundBlur_3614_3852"/>
<feBlend mode="normal" in="SourceGraphic" in2="effect1_backgroundBlur_3614_3852" result="shape"/>
<feColorMatrix in="SourceAlpha" type="matrix" values="0 0 0 0 0 0 0 0 0 0 0 0 0 0 0 0 0 0 127 0" result="hardAlpha"/>
<feOffset dy="1.49313"/>
<feGaussianBlur stdDeviation="0.746567"/>
<feComposite in2="hardAlpha" operator="arithmetic" k2="-1" k3="1"/>
<feColorMatrix type="matrix" values="0 0 0 0 1 0 0 0 0 1 0 0 0 0 1 0 0 0 0.3 0"/>
<feBlend mode="normal" in2="shape" result="effect2_innerShadow_3614_3852"/>
</filter>
</defs>
</svg>
