<svg width="191" height="191" viewBox="0 0 191 191" fill="none" xmlns="http://www.w3.org/2000/svg">
<g clip-path="url(#clip0_3618_5284)">
<path d="M60.6338 232.744C111.686 232.744 153.072 191.358 153.072 140.306C153.072 89.2533 111.686 47.8672 60.6338 47.8672C9.58142 47.8672 -31.8047 89.2533 -31.8047 140.306C-31.8047 191.358 9.58142 232.744 60.6338 232.744Z" fill="url(#paint0_linear_3618_5284)"/>
</g>
<g filter="url(#filter0_b_3618_5284)">
<rect x="29.9766" width="160.619" height="160.619" rx="10.5324" fill="white" fill-opacity="0.04"/>
<rect x="52.4473" y="46.4375" width="115.676" height="67.7409" rx="33.8705" fill="white"/>
<path d="M86.3197 94.4285C94.1139 94.4285 100.432 88.11 100.432 80.3158C100.432 72.5216 94.1139 66.2031 86.3197 66.2031C78.5255 66.2031 72.207 72.5216 72.207 80.3158C72.207 88.11 78.5255 94.4285 86.3197 94.4285Z" fill="#86EFAC" stroke="#86EFAC" stroke-width="4.23381" stroke-linecap="round" stroke-linejoin="round"/>
<path d="M79.9668 80.3119L84.2006 84.5457L92.6682 76.0781" stroke="white" stroke-width="4.23381" stroke-linecap="round" stroke-linejoin="round"/>
<g opacity="0.9">
<path d="M128.018 90.0573C126.779 90.0573 125.684 89.8378 124.734 89.3987C123.79 88.9537 123.053 88.3433 122.524 87.5675C121.995 86.7857 121.733 85.8956 121.739 84.8973C121.733 84.1155 121.886 83.3938 122.199 82.7323C122.512 82.0648 122.939 81.5085 123.48 81.0634C124.027 80.6124 124.638 80.3267 125.311 80.2065V80.0982C124.427 79.8697 123.724 79.3735 123.2 78.6098C122.677 77.84 122.419 76.9649 122.425 75.9847C122.419 75.0465 122.656 74.2076 123.137 73.4678C123.618 72.7281 124.28 72.1448 125.122 71.7178C125.97 71.2908 126.935 71.0773 128.018 71.0773C129.088 71.0773 130.044 71.2908 130.886 71.7178C131.728 72.1448 132.39 72.7281 132.871 73.4678C133.358 74.2076 133.605 75.0465 133.611 75.9847C133.605 76.9649 133.337 77.84 132.808 78.6098C132.285 79.3735 131.59 79.8697 130.724 80.0982V80.2065C131.391 80.3267 131.993 80.6124 132.528 81.0634C133.063 81.5085 133.49 82.0648 133.809 82.7323C134.128 83.3938 134.29 84.1155 134.296 84.8973C134.29 85.8956 134.02 86.7857 133.484 87.5675C132.955 88.3433 132.218 88.9537 131.274 89.3987C130.336 89.8378 129.25 90.0573 128.018 90.0573ZM128.018 88.0727C128.854 88.0727 129.575 87.9374 130.183 87.6667C130.79 87.3961 131.259 87.0142 131.59 86.5211C131.921 86.0279 132.089 85.4506 132.095 84.7891C132.089 84.0915 131.909 83.475 131.554 82.9398C131.199 82.4045 130.715 81.9836 130.101 81.6769C129.494 81.3702 128.799 81.2168 128.018 81.2168C127.23 81.2168 126.526 81.3702 125.907 81.6769C125.293 81.9836 124.809 82.4045 124.454 82.9398C124.106 83.475 123.934 84.0915 123.94 84.7891C123.934 85.4506 124.094 86.0279 124.418 86.5211C124.749 87.0142 125.221 87.3961 125.835 87.6667C126.448 87.9374 127.176 88.0727 128.018 88.0727ZM128.018 79.3044C128.679 79.3044 129.266 79.1721 129.777 78.9074C130.294 78.6428 130.7 78.273 130.995 77.7979C131.289 77.3228 131.44 76.7665 131.446 76.129C131.44 75.5036 131.292 74.9593 131.004 74.4962C130.715 74.0271 130.315 73.6663 129.804 73.4137C129.293 73.1551 128.697 73.0258 128.018 73.0258C127.326 73.0258 126.722 73.1551 126.204 73.4137C125.687 73.6663 125.287 74.0271 125.005 74.4962C124.722 74.9593 124.584 75.5036 124.59 76.129C124.584 76.7665 124.725 77.3228 125.014 77.7979C125.308 78.273 125.714 78.6428 126.231 78.9074C126.749 79.1721 127.344 79.3044 128.018 79.3044ZM138.331 89.8047L146.594 73.4588V73.3145H137.068V71.3299H148.903V73.4227L140.676 89.8047H138.331Z" fill="#102353"/>
</g>
</g>
<defs>
<filter id="filter0_b_3618_5284" x="-32.1121" y="-62.0887" width="284.796" height="284.795" filterUnits="userSpaceOnUse" color-interpolation-filters="sRGB">
<feFlood flood-opacity="0" result="BackgroundImageFix"/>
<feGaussianBlur in="BackgroundImageFix" stdDeviation="31.0443"/>
<feComposite in2="SourceAlpha" operator="in" result="effect1_backgroundBlur_3618_5284"/>
<feBlend mode="normal" in="SourceGraphic" in2="effect1_backgroundBlur_3618_5284" result="shape"/>
</filter>
<linearGradient id="paint0_linear_3618_5284" x1="-31.8047" y1="140.306" x2="-31.8047" y2="288.207" gradientUnits="userSpaceOnUse">
<stop stop-color="#94FF92"/>
<stop offset="0.64" stop-color="#29FE17"/>
</linearGradient>
<clipPath id="clip0_3618_5284">
<rect x="0.404297" y="90.4609" width="99.6914" height="99.6914" rx="49.8457" fill="white"/>
</clipPath>
</defs>
</svg>
