<svg width="160" height="160" viewBox="0 0 160 160" fill="none" xmlns="http://www.w3.org/2000/svg">
<path d="M88.6388 61.5625C94.5873 59.9685 100.031 65.4119 98.4367 71.3604L86.9938 114.066C85.3999 120.015 77.9642 122.007 73.6095 117.652L42.3469 86.3896C37.9923 82.035 39.9846 74.5993 45.9332 73.0054L88.6388 61.5625Z" fill="#1758FE"/>
<g filter="url(#filter0_bi_3614_3845)">
<path fill-rule="evenodd" clip-rule="evenodd" d="M67.2727 30.2C58.8378 30.2 52 37.05 52 45.5C52 53.95 58.8378 60.8 67.2727 60.8C75.7076 60.8 82.5455 53.95 82.5455 45.5C82.5455 37.05 75.7076 30.2 67.2727 30.2ZM41.8182 45.5C41.8182 31.4167 53.2146 20 67.2727 20C81.3309 20 92.7273 31.4167 92.7273 45.5C92.7273 59.5833 81.3309 71 67.2727 71C53.2146 71 41.8182 59.5833 41.8182 45.5ZM93.0992 24.6693C94.1542 22.0584 97.1222 20.7986 99.7284 21.8555C109.048 25.6345 115.636 34.7903 115.636 45.5C115.636 56.2097 109.048 65.3655 99.7284 69.1445C97.1222 70.2014 94.1542 68.9416 93.0992 66.3307C92.0443 63.7199 93.3018 60.7466 95.908 59.6897C101.515 57.4162 105.455 51.913 105.455 45.5C105.455 39.087 101.515 33.5838 95.908 31.3103C93.3018 30.2534 92.0443 27.2801 93.0992 24.6693ZM59.4555 81.2H80C82.8116 81.2 85.0909 83.4833 85.0909 86.3C85.0909 89.1166 82.8116 91.4 80 91.4H59.6364C54.8226 91.4 51.4672 91.4028 48.8408 91.5823C46.2602 91.7587 44.7573 92.0885 43.6099 92.5646C39.8677 94.1175 36.8945 97.096 35.3444 100.845C34.8691 101.994 34.5398 103.5 34.3638 106.085C34.1846 108.716 34.1818 112.078 34.1818 116.9C34.1818 119.717 31.9025 122 29.0909 122C26.2793 122 24 119.717 24 116.9L24 116.719C24 112.12 23.9999 108.41 24.2056 105.391C24.417 102.286 24.8628 99.541 25.9376 96.9416C28.5211 90.6934 33.4764 85.7292 39.7135 83.1411C42.3083 82.0643 45.0487 81.6178 48.1477 81.4059C51.1616 81.1999 54.8648 81.2 59.4555 81.2ZM115.636 81.2C116.987 81.2 118.281 81.7373 119.236 82.6938L134.509 97.9938C136.497 99.9854 136.497 103.215 134.509 105.206C132.521 107.198 129.297 107.198 127.309 105.206L120.727 98.6125V116.9C120.727 119.717 118.448 122 115.636 122C112.825 122 110.545 119.717 110.545 116.9V98.6125L103.963 105.206C101.975 107.198 98.7519 107.198 96.7638 105.206C94.7757 103.215 94.7757 99.9854 96.7638 97.9938L112.037 82.6938C112.991 81.7373 114.286 81.2 115.636 81.2Z" fill="white" fill-opacity="0.03"/>
</g>
<defs>
<filter id="filter0_bi_3614_3845" x="-70.4433" y="-74.4433" width="300.887" height="290.887" filterUnits="userSpaceOnUse" color-interpolation-filters="sRGB">
<feFlood flood-opacity="0" result="BackgroundImageFix"/>
<feGaussianBlur in="BackgroundImageFix" stdDeviation="47.2217"/>
<feComposite in2="SourceAlpha" operator="in" result="effect1_backgroundBlur_3614_3845"/>
<feBlend mode="normal" in="SourceGraphic" in2="effect1_backgroundBlur_3614_3845" result="shape"/>
<feColorMatrix in="SourceAlpha" type="matrix" values="0 0 0 0 0 0 0 0 0 0 0 0 0 0 0 0 0 0 127 0" result="hardAlpha"/>
<feOffset dy="2.14644"/>
<feGaussianBlur stdDeviation="1.07322"/>
<feComposite in2="hardAlpha" operator="arithmetic" k2="-1" k3="1"/>
<feColorMatrix type="matrix" values="0 0 0 0 1 0 0 0 0 1 0 0 0 0 1 0 0 0 0.3 0"/>
<feBlend mode="normal" in2="shape" result="effect2_innerShadow_3614_3845"/>
</filter>
</defs>
</svg>
