<svg width="160" height="160" viewBox="0 0 160 160" fill="none" xmlns="http://www.w3.org/2000/svg">
<path fill-rule="evenodd" clip-rule="evenodd" d="M82.4976 94.1138C67.9616 94.1138 55.9673 106.015 55.9673 120.956C55.9673 130.61 48.1418 138.435 38.4886 138.435C28.8353 138.435 21.0098 130.61 21.0098 120.956C21.0098 86.9417 48.4226 59.1562 82.4976 59.1562C116.573 59.1562 143.986 86.9417 143.986 120.956C143.986 130.61 136.16 138.435 126.507 138.435C116.853 138.435 109.028 130.61 109.028 120.956C109.028 106.015 97.0337 94.1138 82.4976 94.1138Z" fill="#1758FE"/>
<g opacity="0.64">
<g filter="url(#filter0_bi_3614_3860)">
<path fill-rule="evenodd" clip-rule="evenodd" d="M37.0838 26.2443C37.0838 23.6586 34.9877 21.5625 32.402 21.5625C29.8163 21.5625 27.7202 23.6586 27.7202 26.2443V33.267H20.6974C18.1117 33.267 16.0156 35.3632 16.0156 37.9489C16.0156 40.5346 18.1117 42.6307 20.6974 42.6307H27.7202V49.6534C27.7202 52.2391 29.8163 54.3352 32.402 54.3352C34.9877 54.3352 37.0838 52.2391 37.0838 49.6534V42.6307H44.1065C46.6922 42.6307 48.7884 40.5346 48.7884 37.9489C48.7884 35.3632 46.6922 33.267 44.1065 33.267H37.0838V26.2443ZM76.5672 29.2455C75.8718 27.4374 74.1346 26.2443 72.1974 26.2443C70.2602 26.2443 68.5231 27.4374 67.8277 29.2455L59.7086 50.3551C58.3022 54.0118 57.8602 55.0656 57.2557 55.9158C56.6491 56.7688 55.9038 57.5142 55.0507 58.1207C54.2005 58.7253 53.1468 59.1672 49.4901 60.5736L28.3804 68.6927C26.5723 69.3882 25.3793 71.1253 25.3793 73.0625C25.3793 74.9997 26.5723 76.7368 28.3804 77.4323L49.4901 85.5514C53.1468 86.9578 54.2005 87.3997 55.0507 88.0043C55.9038 88.6108 56.6491 89.3562 57.2557 90.2092C57.8602 91.0594 58.3022 92.1132 59.7086 95.7699L67.8277 116.88C68.5231 118.688 70.2603 119.881 72.1975 119.881C74.1347 119.881 75.8718 118.688 76.5672 116.88L84.6863 95.7699C86.0927 92.1132 86.5347 91.0594 87.1392 90.2092C87.7458 89.3562 88.4911 88.6108 89.3442 88.0043C90.1944 87.3997 91.2481 86.9578 94.9048 85.5514L116.014 77.4323C117.823 76.7368 119.016 74.9997 119.016 73.0625C119.016 71.1253 117.823 69.3882 116.014 68.6927L94.9048 60.5736C91.2481 59.1672 90.1944 58.7253 89.3442 58.1207C88.4911 57.5142 87.7458 56.7688 87.1392 55.9158C86.5347 55.0656 86.0927 54.0118 84.6863 50.3551L76.5672 29.2455ZM37.0838 96.4716C37.0838 93.8859 34.9877 91.7898 32.402 91.7898C29.8163 91.7898 27.7202 93.8859 27.7202 96.4716V103.494H20.6974C18.1117 103.494 16.0156 105.59 16.0156 108.176C16.0156 110.762 18.1117 112.858 20.6974 112.858H27.7202V119.881C27.7202 122.466 29.8163 124.562 32.402 124.562C34.9877 124.562 37.0838 122.466 37.0838 119.881V112.858H44.1065C46.6922 112.858 48.7884 110.762 48.7884 108.176C48.7884 105.59 46.6922 103.494 44.1065 103.494H37.0838V96.4716Z" fill="white" fill-opacity="0.03"/>
</g>
</g>
<defs>
<filter id="filter0_bi_3614_3860" x="-33.8313" y="-28.2844" width="202.694" height="202.694" filterUnits="userSpaceOnUse" color-interpolation-filters="sRGB">
<feFlood flood-opacity="0" result="BackgroundImageFix"/>
<feGaussianBlur in="BackgroundImageFix" stdDeviation="24.9235"/>
<feComposite in2="SourceAlpha" operator="in" result="effect1_backgroundBlur_3614_3860"/>
<feBlend mode="normal" in="SourceGraphic" in2="effect1_backgroundBlur_3614_3860" result="shape"/>
<feColorMatrix in="SourceAlpha" type="matrix" values="0 0 0 0 0 0 0 0 0 0 0 0 0 0 0 0 0 0 127 0" result="hardAlpha"/>
<feOffset dy="1.13288"/>
<feGaussianBlur stdDeviation="0.566442"/>
<feComposite in2="hardAlpha" operator="arithmetic" k2="-1" k3="1"/>
<feColorMatrix type="matrix" values="0 0 0 0 1 0 0 0 0 1 0 0 0 0 1 0 0 0 0.3 0"/>
<feBlend mode="normal" in2="shape" result="effect2_innerShadow_3614_3860"/>
</filter>
</defs>
</svg>
