<svg
    width="191"
    height="191"
    viewBox="0 0 191 191"
    fill="none"
    xmlns="http://www.w3.org/2000/svg"
>
    <defs>
        <linearGradient id="paint0_linear_3618_5298" x1="60.7295" y1="48.1797" x2="60.7295" y2="233.057" gradientUnits="userSpaceOnUse">
            <stop stop-color="#FFFB92"/>
            <stop offset="1" stop-color="#FECB17"/>
        </linearGradient>
    </defs>
    <g clip-path="url(#clip0_3618_5298)">
        <path
            d="M60.7295 233.057C111.782 233.057 153.168 191.671 153.168 140.618C153.168 89.5658 111.782 48.1797 60.7295 48.1797C9.67713 48.1797 -31.709 89.5658 -31.709 140.618C-31.709 191.671 9.67713 233.057 60.7295 233.057Z"
            fill="url(#paint0_linear_3618_5298)"
        />
    </g>
    <g filter="url(#filter0_b_3618_5298)">
        <rect
            x="30.0723"
            y="0.3125"
            width="160.619"
            height="160.619"
            rx="10.5324"
            fill="white"
            fill-opacity="0.04"
        />
        <rect
            x="54.8809"
            y="40.625"
            width="79"
            height="24"
            rx="12"
            fill="white"
        />
        <path
            d="M69.9093 48.3977L72.1806 55.267H72.2701L74.5371 48.3977H76.2757L73.199 57.125H71.2473L68.1749 48.3977H69.9093ZM78.5609 57.2571C78.1461 57.2571 77.7725 57.1832 77.4402 57.0355C77.1106 56.8849 76.8493 56.6634 76.6561 56.3707C76.4657 56.0781 76.3706 55.7173 76.3706 55.2884C76.3706 54.919 76.4387 54.6136 76.5751 54.3722C76.7115 54.1307 76.8975 53.9375 77.1333 53.7926C77.3691 53.6477 77.6348 53.5384 77.9302 53.4645C78.2285 53.3878 78.5368 53.3324 78.8549 53.2983C79.2385 53.2585 79.5495 53.223 79.7882 53.1918C80.0268 53.1577 80.2001 53.1065 80.3081 53.0384C80.4189 52.9673 80.4743 52.858 80.4743 52.7102V52.6847C80.4743 52.3636 80.3791 52.1151 80.1887 51.9389C79.9984 51.7628 79.7243 51.6747 79.3663 51.6747C78.9885 51.6747 78.6887 51.7571 78.4672 51.9219C78.2484 52.0866 78.1007 52.2812 78.024 52.5057L76.5836 52.3011C76.6973 51.9034 76.8848 51.571 77.1461 51.304C77.4075 51.0341 77.7271 50.8324 78.1049 50.6989C78.4828 50.5625 78.9004 50.4943 79.3578 50.4943C79.6731 50.4943 79.987 50.5312 80.2995 50.6051C80.612 50.679 80.8975 50.8011 81.1561 50.9716C81.4146 51.1392 81.622 51.3679 81.7782 51.6577C81.9373 51.9474 82.0169 52.3097 82.0169 52.7443V57.125H80.5339V56.2259H80.4828C80.389 56.4077 80.2569 56.5781 80.0865 56.7372C79.9189 56.8935 79.7072 57.0199 79.4515 57.1165C79.1987 57.2102 78.9018 57.2571 78.5609 57.2571ZM78.9615 56.1236C79.2711 56.1236 79.5396 56.0625 79.7669 55.9403C79.9941 55.8153 80.1689 55.6506 80.291 55.446C80.416 55.2415 80.4785 55.0185 80.4785 54.777V54.0057C80.4302 54.0455 80.3478 54.0824 80.2314 54.1165C80.1177 54.1506 79.9899 54.1804 79.8478 54.206C79.7058 54.2315 79.5652 54.2543 79.426 54.2741C79.2868 54.294 79.166 54.3111 79.0637 54.3253C78.8336 54.3565 78.6277 54.4077 78.4458 54.4787C78.264 54.5497 78.1206 54.6491 78.0154 54.777C77.9103 54.902 77.8578 55.0639 77.8578 55.2628C77.8578 55.5469 77.9615 55.7614 78.1689 55.9062C78.3762 56.0511 78.6404 56.1236 78.9615 56.1236ZM85.1106 48.3977V57.125H83.568V48.3977H85.1106ZM86.6969 57.125V50.5795H88.2395V57.125H86.6969ZM87.4725 49.6506C87.2282 49.6506 87.0179 49.5696 86.8418 49.4077C86.6657 49.2429 86.5776 49.0455 86.5776 48.8153C86.5776 48.5824 86.6657 48.3849 86.8418 48.223C87.0179 48.0582 87.2282 47.9759 87.4725 47.9759C87.7196 47.9759 87.9299 48.0582 88.1032 48.223C88.2793 48.3849 88.3674 48.5824 88.3674 48.8153C88.3674 49.0455 88.2793 49.2429 88.1032 49.4077C87.9299 49.5696 87.7196 49.6506 87.4725 49.6506ZM92.2548 57.2401C91.7406 57.2401 91.2804 57.108 90.8741 56.8438C90.4679 56.5795 90.1468 56.196 89.911 55.6932C89.6752 55.1903 89.5574 54.5795 89.5574 53.8608C89.5574 53.1335 89.6767 52.5199 89.9153 52.0199C90.1568 51.517 90.4821 51.1378 90.8912 50.8821C91.3002 50.6236 91.7562 50.4943 92.2591 50.4943C92.6426 50.4943 92.9579 50.5597 93.2051 50.6903C93.4522 50.8182 93.6483 50.973 93.7931 51.1548C93.938 51.3338 94.0502 51.5028 94.1298 51.6619H94.1937V48.3977H95.7406V57.125H94.2235V56.0938H94.1298C94.0502 56.2528 93.9352 56.4219 93.7846 56.6009C93.6341 56.777 93.4352 56.9276 93.188 57.0526C92.9409 57.1776 92.6298 57.2401 92.2548 57.2401ZM92.6852 55.9744C93.0119 55.9744 93.2903 55.8864 93.5204 55.7102C93.7505 55.5312 93.9252 55.2827 94.0446 54.9645C94.1639 54.6463 94.2235 54.2756 94.2235 53.8523C94.2235 53.429 94.1639 53.0611 94.0446 52.7486C93.9281 52.4361 93.7548 52.1932 93.5247 52.0199C93.2974 51.8466 93.0176 51.7599 92.6852 51.7599C92.3414 51.7599 92.0545 51.8494 91.8244 52.0284C91.5943 52.2074 91.421 52.4545 91.3045 52.7699C91.188 53.0852 91.1298 53.446 91.1298 53.8523C91.1298 54.2614 91.188 54.6264 91.3045 54.9474C91.4238 55.2656 91.5985 55.517 91.8287 55.7017C92.0616 55.8835 92.3471 55.9744 92.6852 55.9744ZM99.2679 57.2571C98.8532 57.2571 98.4796 57.1832 98.1472 57.0355C97.8176 56.8849 97.5563 56.6634 97.3631 56.3707C97.1728 56.0781 97.0776 55.7173 97.0776 55.2884C97.0776 54.919 97.1458 54.6136 97.2821 54.3722C97.4185 54.1307 97.6046 53.9375 97.8404 53.7926C98.0762 53.6477 98.3418 53.5384 98.6373 53.4645C98.9355 53.3878 99.2438 53.3324 99.562 53.2983C99.9455 53.2585 100.257 53.223 100.495 53.1918C100.734 53.1577 100.907 53.1065 101.015 53.0384C101.126 52.9673 101.181 52.858 101.181 52.7102V52.6847C101.181 52.3636 101.086 52.1151 100.896 51.9389C100.705 51.7628 100.431 51.6747 100.073 51.6747C99.6955 51.6747 99.3958 51.7571 99.1742 51.9219C98.9554 52.0866 98.8077 52.2812 98.731 52.5057L97.2907 52.3011C97.4043 51.9034 97.5918 51.571 97.8532 51.304C98.1145 51.0341 98.4341 50.8324 98.812 50.6989C99.1898 50.5625 99.6074 50.4943 100.065 50.4943C100.38 50.4943 100.694 50.5312 101.007 50.6051C101.319 50.679 101.605 50.8011 101.863 50.9716C102.122 51.1392 102.329 51.3679 102.485 51.6577C102.644 51.9474 102.724 52.3097 102.724 52.7443V57.125H101.241V56.2259H101.19C101.096 56.4077 100.964 56.5781 100.794 56.7372C100.626 56.8935 100.414 57.0199 100.159 57.1165C99.9057 57.2102 99.6088 57.2571 99.2679 57.2571ZM99.6685 56.1236C99.9782 56.1236 100.247 56.0625 100.474 55.9403C100.701 55.8153 100.876 55.6506 100.998 55.446C101.123 55.2415 101.186 55.0185 101.186 54.777V54.0057C101.137 54.0455 101.055 54.0824 100.938 54.1165C100.825 54.1506 100.697 54.1804 100.555 54.206C100.413 54.2315 100.272 54.2543 100.133 54.2741C99.9938 54.294 99.873 54.3111 99.7708 54.3253C99.5407 54.3565 99.3347 54.4077 99.1529 54.4787C98.9711 54.5497 98.8276 54.6491 98.7225 54.777C98.6174 54.902 98.5648 55.0639 98.5648 55.2628C98.5648 55.5469 98.6685 55.7614 98.8759 55.9062C99.0833 56.0511 99.3475 56.1236 99.6685 56.1236ZM107.544 50.5795V51.7727H103.781V50.5795H107.544ZM104.71 49.0114H106.252V55.1562C106.252 55.3636 106.284 55.5227 106.346 55.6335C106.411 55.7415 106.497 55.8153 106.602 55.8551C106.707 55.8949 106.823 55.9148 106.951 55.9148C107.048 55.9148 107.136 55.9077 107.215 55.8935C107.298 55.8793 107.36 55.8665 107.403 55.8551L107.663 57.0611C107.58 57.0895 107.463 57.1207 107.309 57.1548C107.159 57.1889 106.974 57.2088 106.755 57.2145C106.369 57.2259 106.021 57.1676 105.711 57.0398C105.401 56.9091 105.156 56.7074 104.974 56.4347C104.795 56.1619 104.707 55.821 104.71 55.4119V49.0114ZM111.618 57.2528C110.979 57.2528 110.425 57.1122 109.956 56.831C109.488 56.5497 109.124 56.1562 108.866 55.6506C108.61 55.1449 108.482 54.554 108.482 53.8778C108.482 53.2017 108.61 52.6094 108.866 52.1009C109.124 51.5923 109.488 51.1974 109.956 50.9162C110.425 50.6349 110.979 50.4943 111.618 50.4943C112.258 50.4943 112.812 50.6349 113.28 50.9162C113.749 51.1974 114.111 51.5923 114.367 52.1009C114.626 52.6094 114.755 53.2017 114.755 53.8778C114.755 54.554 114.626 55.1449 114.367 55.6506C114.111 56.1562 113.749 56.5497 113.28 56.831C112.812 57.1122 112.258 57.2528 111.618 57.2528ZM111.627 56.017C111.974 56.017 112.263 55.9219 112.496 55.7315C112.729 55.5384 112.903 55.2798 113.016 54.956C113.133 54.6321 113.191 54.2713 113.191 53.8736C113.191 53.473 113.133 53.1108 113.016 52.7869C112.903 52.4602 112.729 52.2003 112.496 52.0071C112.263 51.8139 111.974 51.7173 111.627 51.7173C111.272 51.7173 110.976 51.8139 110.741 52.0071C110.508 52.2003 110.333 52.4602 110.216 52.7869C110.103 53.1108 110.046 53.473 110.046 53.8736C110.046 54.2713 110.103 54.6321 110.216 54.956C110.333 55.2798 110.508 55.5384 110.741 55.7315C110.976 55.9219 111.272 56.017 111.627 56.017ZM116.064 57.125V50.5795H117.56V51.6705H117.628C117.747 51.2926 117.952 51.0014 118.242 50.7969C118.534 50.5895 118.868 50.4858 119.243 50.4858C119.328 50.4858 119.423 50.4901 119.529 50.4986C119.637 50.5043 119.726 50.5142 119.797 50.5284V51.9474C119.732 51.9247 119.628 51.9048 119.486 51.8878C119.347 51.8679 119.212 51.858 119.081 51.858C118.8 51.858 118.547 51.919 118.323 52.0412C118.101 52.1605 117.926 52.3267 117.798 52.5398C117.671 52.7528 117.607 52.9986 117.607 53.277V57.125H116.064Z"
            fill="#102353"
        />
        <rect
            x="54.8809"
            y="68.625"
            width="79"
            height="24"
            rx="12"
            fill="white"
        />
        <path
            d="M77.3624 85.125H75.6749L78.7473 76.3977H80.699L83.7757 85.125H82.0882L79.7573 78.1875H79.6891L77.3624 85.125ZM77.4178 81.7031H82.0201V82.973H77.4178V81.7031ZM87.0868 85.2401C86.5726 85.2401 86.1124 85.108 85.7061 84.8438C85.2999 84.5795 84.9789 84.196 84.7431 83.6932C84.5073 83.1903 84.3894 82.5795 84.3894 81.8608C84.3894 81.1335 84.5087 80.5199 84.7473 80.0199C84.9888 79.517 85.3141 79.1378 85.7232 78.8821C86.1323 78.6236 86.5882 78.4943 87.0911 78.4943C87.4746 78.4943 87.79 78.5597 88.0371 78.6903C88.2843 78.8182 88.4803 78.973 88.6252 79.1548C88.7701 79.3338 88.8823 79.5028 88.9618 79.6619H89.0257V76.3977H90.5726V85.125H89.0556V84.0938H88.9618C88.8823 84.2528 88.7672 84.4219 88.6167 84.6009C88.4661 84.777 88.2672 84.9276 88.0201 85.0526C87.7729 85.1776 87.4618 85.2401 87.0868 85.2401ZM87.5172 83.9744C87.8439 83.9744 88.1223 83.8864 88.3525 83.7102C88.5826 83.5312 88.7573 83.2827 88.8766 82.9645C88.9959 82.6463 89.0556 82.2756 89.0556 81.8523C89.0556 81.429 88.9959 81.0611 88.8766 80.7486C88.7601 80.4361 88.5868 80.1932 88.3567 80.0199C88.1294 79.8466 87.8496 79.7599 87.5172 79.7599C87.1735 79.7599 86.8865 79.8494 86.6564 80.0284C86.4263 80.2074 86.253 80.4545 86.1365 80.7699C86.0201 81.0852 85.9618 81.446 85.9618 81.8523C85.9618 82.2614 86.0201 82.6264 86.1365 82.9474C86.2559 83.2656 86.4306 83.517 86.6607 83.7017C86.8936 83.8835 87.1792 83.9744 87.5172 83.9744ZM92.2164 85.125V78.5795H93.6909V79.6918H93.7676C93.9039 79.3168 94.1298 79.0241 94.4451 78.8139C94.7605 78.6009 95.1369 78.4943 95.5744 78.4943C96.0176 78.4943 96.3912 78.6023 96.6951 78.8182C97.002 79.0312 97.2179 79.3224 97.3429 79.6918H97.411C97.5559 79.3281 97.8002 79.0384 98.144 78.8224C98.4906 78.6037 98.9011 78.4943 99.3755 78.4943C99.9778 78.4943 100.469 78.6847 100.85 79.0653C101.231 79.446 101.421 80.0014 101.421 80.7315V85.125H99.8741V80.9702C99.8741 80.5639 99.7662 80.267 99.5502 80.0795C99.3343 79.8892 99.0701 79.794 98.7576 79.794C98.3855 79.794 98.0943 79.9105 97.8841 80.1435C97.6767 80.3736 97.573 80.6733 97.573 81.0426V85.125H96.0602V80.9062C96.0602 80.5682 95.9579 80.2983 95.7534 80.0966C95.5517 79.8949 95.2875 79.794 94.9608 79.794C94.7392 79.794 94.5375 79.8509 94.3556 79.9645C94.1738 80.0753 94.0289 80.233 93.921 80.4375C93.813 80.6392 93.7591 80.875 93.7591 81.1449V85.125H92.2164ZM102.986 85.125V78.5795H104.529V85.125H102.986ZM103.762 77.6506C103.517 77.6506 103.307 77.5696 103.131 77.4077C102.955 77.2429 102.867 77.0455 102.867 76.8153C102.867 76.5824 102.955 76.3849 103.131 76.223C103.307 76.0582 103.517 75.9759 103.762 75.9759C104.009 75.9759 104.219 76.0582 104.392 76.223C104.568 76.3849 104.656 76.5824 104.656 76.8153C104.656 77.0455 104.568 77.2429 104.392 77.4077C104.219 77.5696 104.009 77.6506 103.762 77.6506ZM107.657 81.2898V85.125H106.115V78.5795H107.589V79.6918H107.666C107.817 79.3253 108.057 79.0341 108.386 78.8182C108.719 78.6023 109.129 78.4943 109.618 78.4943C110.069 78.4943 110.463 78.5909 110.798 78.7841C111.136 78.9773 111.398 79.2571 111.582 79.6236C111.77 79.9901 111.862 80.4347 111.859 80.9574V85.125H110.317V81.196C110.317 80.7585 110.203 80.4162 109.976 80.169C109.751 79.9219 109.44 79.7983 109.042 79.7983C108.773 79.7983 108.532 79.858 108.322 79.9773C108.115 80.0937 107.952 80.2628 107.832 80.4844C107.716 80.706 107.657 80.9744 107.657 81.2898Z"
            fill="#102353"
        />
        <rect
            x="54.8809"
            y="96.625"
            width="79"
            height="24"
            rx="12"
            fill="white"
        />
        <path
            d="M80.1848 104.398H81.753V110.534C81.7502 111.097 81.6309 111.581 81.3951 111.987C81.1593 112.391 80.8297 112.702 80.4064 112.92C79.986 113.136 79.4959 113.244 78.9363 113.244C78.4249 113.244 77.9647 113.153 77.5556 112.972C77.1493 112.787 76.8269 112.514 76.5882 112.153C76.3496 111.793 76.2303 111.344 76.2303 110.807H77.8027C77.8056 111.043 77.8567 111.246 77.9561 111.416C78.0584 111.587 78.199 111.717 78.378 111.808C78.557 111.899 78.763 111.945 78.9959 111.945C79.2488 111.945 79.4632 111.892 79.6394 111.787C79.8155 111.679 79.949 111.52 80.04 111.31C80.1337 111.099 80.182 110.841 80.1848 110.534V104.398ZM87.5719 110.372V106.58H89.1145V113.125H87.6188V111.962H87.5506C87.4029 112.328 87.16 112.628 86.8219 112.861C86.4867 113.094 86.0733 113.21 85.5819 113.21C85.1529 113.21 84.7736 113.115 84.4441 112.925C84.1174 112.732 83.8617 112.452 83.677 112.085C83.4924 111.716 83.4 111.27 83.4 110.747V106.58H84.9426V110.509C84.9426 110.923 85.0563 111.253 85.2836 111.497C85.5108 111.741 85.8091 111.864 86.1784 111.864C86.4057 111.864 86.6259 111.808 86.839 111.697C87.052 111.587 87.2267 111.422 87.3631 111.203C87.5023 110.982 87.5719 110.705 87.5719 110.372ZM93.1298 113.24C92.6156 113.24 92.1554 113.108 91.7491 112.844C91.3429 112.58 91.0218 112.196 90.786 111.693C90.5502 111.19 90.4324 110.58 90.4324 109.861C90.4324 109.134 90.5517 108.52 90.7903 108.02C91.0318 107.517 91.3571 107.138 91.7662 106.882C92.1752 106.624 92.6312 106.494 93.1341 106.494C93.5176 106.494 93.8329 106.56 94.0801 106.69C94.3272 106.818 94.5233 106.973 94.6681 107.155C94.813 107.334 94.9252 107.503 95.0048 107.662H95.0687V104.398H96.6156V113.125H95.0985V112.094H95.0048C94.9252 112.253 94.8102 112.422 94.6596 112.601C94.5091 112.777 94.3102 112.928 94.063 113.053C93.8159 113.178 93.5048 113.24 93.1298 113.24ZM93.5602 111.974C93.8869 111.974 94.1653 111.886 94.3954 111.71C94.6255 111.531 94.8002 111.283 94.9196 110.964C95.0389 110.646 95.0985 110.276 95.0985 109.852C95.0985 109.429 95.0389 109.061 94.9196 108.749C94.8031 108.436 94.6298 108.193 94.3997 108.02C94.1724 107.847 93.8926 107.76 93.5602 107.76C93.2164 107.76 92.9295 107.849 92.6994 108.028C92.4693 108.207 92.296 108.455 92.1795 108.77C92.063 109.085 92.0048 109.446 92.0048 109.852C92.0048 110.261 92.063 110.626 92.1795 110.947C92.2988 111.266 92.4735 111.517 92.7037 111.702C92.9366 111.884 93.2221 111.974 93.5602 111.974ZM101.106 115.716C100.552 115.716 100.076 115.641 99.6784 115.49C99.2807 115.342 98.9611 115.143 98.7196 114.893C98.4782 114.643 98.3105 114.366 98.2168 114.062L99.606 113.726C99.6685 113.854 99.7594 113.98 99.8787 114.105C99.998 114.233 100.159 114.338 100.36 114.42C100.565 114.506 100.822 114.548 101.132 114.548C101.569 114.548 101.931 114.442 102.218 114.229C102.505 114.018 102.649 113.672 102.649 113.189V111.949H102.572C102.492 112.108 102.376 112.271 102.222 112.439C102.072 112.607 101.872 112.747 101.622 112.861C101.374 112.974 101.063 113.031 100.688 113.031C100.186 113.031 99.7296 112.913 99.3205 112.678C98.9142 112.439 98.5904 112.084 98.3489 111.612C98.1103 111.138 97.9909 110.544 97.9909 109.831C97.9909 109.112 98.1103 108.506 98.3489 108.011C98.5904 107.514 98.9157 107.138 99.3248 106.882C99.7338 106.624 100.19 106.494 100.693 106.494C101.076 106.494 101.392 106.56 101.639 106.69C101.889 106.818 102.088 106.973 102.235 107.155C102.383 107.334 102.495 107.503 102.572 107.662H102.657V106.58H104.178V113.232C104.178 113.791 104.045 114.254 103.778 114.621C103.511 114.987 103.146 115.261 102.683 115.443C102.22 115.625 101.694 115.716 101.106 115.716ZM101.119 111.821C101.445 111.821 101.724 111.741 101.954 111.582C102.184 111.423 102.359 111.195 102.478 110.896C102.597 110.598 102.657 110.24 102.657 109.822C102.657 109.411 102.597 109.05 102.478 108.74C102.362 108.43 102.188 108.19 101.958 108.02C101.731 107.847 101.451 107.76 101.119 107.76C100.775 107.76 100.488 107.849 100.258 108.028C100.028 108.207 99.8546 108.453 99.7381 108.766C99.6216 109.075 99.5634 109.428 99.5634 109.822C99.5634 110.223 99.6216 110.574 99.7381 110.875C99.8574 111.173 100.032 111.406 100.262 111.574C100.495 111.739 100.781 111.821 101.119 111.821ZM108.657 113.253C108.001 113.253 107.434 113.116 106.957 112.844C106.482 112.568 106.117 112.179 105.862 111.676C105.606 111.17 105.478 110.575 105.478 109.891C105.478 109.217 105.606 108.626 105.862 108.118C106.12 107.607 106.481 107.209 106.944 106.925C107.407 106.638 107.951 106.494 108.576 106.494C108.98 106.494 109.36 106.56 109.718 106.69C110.079 106.818 110.397 107.017 110.673 107.287C110.951 107.557 111.17 107.901 111.329 108.318C111.488 108.733 111.568 109.227 111.568 109.801V110.274H106.203V109.234H110.089C110.086 108.939 110.022 108.676 109.897 108.446C109.772 108.213 109.597 108.03 109.373 107.896C109.151 107.763 108.893 107.696 108.597 107.696C108.282 107.696 108.005 107.773 107.767 107.926C107.528 108.077 107.342 108.276 107.208 108.523C107.078 108.767 107.011 109.036 107.008 109.328V110.236C107.008 110.616 107.078 110.943 107.217 111.216C107.356 111.486 107.551 111.693 107.801 111.838C108.051 111.98 108.343 112.051 108.678 112.051C108.903 112.051 109.106 112.02 109.288 111.957C109.47 111.892 109.627 111.797 109.761 111.672C109.894 111.547 109.995 111.392 110.063 111.207L111.504 111.369C111.413 111.75 111.24 112.082 110.984 112.366C110.731 112.648 110.407 112.866 110.012 113.023C109.617 113.176 109.166 113.253 108.657 113.253Z"
            fill="#102353"
        />
        <path
            d="M153.881 53.625C154.433 53.625 154.881 53.1773 154.881 52.625C154.881 52.0727 154.433 51.625 153.881 51.625C153.329 51.625 152.881 52.0727 152.881 52.625C152.881 53.1773 153.329 53.625 153.881 53.625Z"
            stroke="#7E8390"
            stroke-width="2"
            stroke-linecap="round"
            stroke-linejoin="round"
        />
        <path
            d="M153.881 46.625C154.433 46.625 154.881 46.1773 154.881 45.625C154.881 45.0727 154.433 44.625 153.881 44.625C153.329 44.625 152.881 45.0727 152.881 45.625C152.881 46.1773 153.329 46.625 153.881 46.625Z"
            stroke="#7E8390"
            stroke-width="2"
            stroke-linecap="round"
            stroke-linejoin="round"
        />
        <path
            d="M153.881 60.625C154.433 60.625 154.881 60.1773 154.881 59.625C154.881 59.0727 154.433 58.625 153.881 58.625C153.329 58.625 152.881 59.0727 152.881 59.625C152.881 60.1773 153.329 60.625 153.881 60.625Z"
            stroke="#7E8390"
            stroke-width="2"
            stroke-linecap="round"
            stroke-linejoin="round"
        />
    </g>
    <defs>
        <filter
            id="filter0_b_3618_5298"
            x="-32.0164"
            y="-61.7762"
            width="284.796"
            height="284.795"
            filterUnits="userSpaceOnUse"
            color-interpolation-filters="sRGB"
        >
            <feFlood flood-opacity="0" result="BackgroundImageFix" />
            <feGaussianBlur in="BackgroundImageFix" stdDeviation="31.0443" />
            <feComposite
                in2="SourceAlpha"
                operator="in"
                result="effect1_backgroundBlur_3618_5298"
            />
            <feBlend
                mode="normal"
                in="SourceGraphic"
                in2="effect1_backgroundBlur_3618_5298"
                result="shape"
            />
        </filter>
        <linearGradient
            id="paint0_linear_3618_5298"
            x1="-31.709"
            y1="140.618"
            x2="-31.709"
            y2="288.52"
            gradientUnits="userSpaceOnUse"
        >
            <stop stop-color="#FFFB92" />
            <stop offset="0.64" stop-color="#FECB17" />
        </linearGradient>
        <clipPath id="clip0_3618_5298">
            <rect
                x="0.5"
                y="90.7734"
                width="99.6914"
                height="99.6914"
                rx="49.8457"
                fill="white"
            />
        </clipPath>
    </defs>
</svg>
