<svg width="64" height="64" viewBox="0 0 64 64" fill="none" xmlns="http://www.w3.org/2000/svg">
<rect width="64" height="64" rx="12" fill="#F1F6FF"/>
<path d="M30.666 21.9974H40.3993C41.8928 21.9974 42.6396 21.9974 43.21 22.288C43.7118 22.5437 44.1197 22.9517 44.3754 23.4534C44.666 24.0239 44.666 24.7706 44.666 26.2641V27.9974C44.666 29.2399 44.666 29.8612 44.463 30.3512C44.1924 31.0046 43.6732 31.5238 43.0198 31.7944C42.5298 31.9974 41.9085 31.9974 40.666 31.9974M33.3327 41.9974H23.5993C22.1059 41.9974 21.3591 41.9974 20.7887 41.7067C20.2869 41.4511 19.879 41.0431 19.6233 40.5414C19.3327 39.9709 19.3327 39.2242 19.3327 37.7307V35.9974C19.3327 34.7549 19.3327 34.1336 19.5357 33.6436C19.8063 32.9902 20.3255 32.471 20.9789 32.2004C21.4689 31.9974 22.0902 31.9974 23.3327 31.9974M29.7327 35.3307H34.266C34.6394 35.3307 34.8261 35.3307 34.9687 35.2581C35.0941 35.1942 35.1961 35.0922 35.26 34.9667C35.3327 34.8241 35.3327 34.6374 35.3327 34.2641V29.7307C35.3327 29.3574 35.3327 29.1707 35.26 29.0281C35.1961 28.9026 35.0941 28.8006 34.9687 28.7367C34.8261 28.6641 34.6394 28.6641 34.266 28.6641H29.7327C29.3593 28.6641 29.1726 28.6641 29.03 28.7367C28.9046 28.8006 28.8026 28.9026 28.7387 29.0281C28.666 29.1707 28.666 29.3574 28.666 29.7307V34.2641C28.666 34.6374 28.666 34.8241 28.7387 34.9667C28.8026 35.0922 28.9046 35.1942 29.03 35.2581C29.1726 35.3307 29.3593 35.3307 29.7327 35.3307ZM39.7327 45.3307H44.266C44.6394 45.3307 44.8261 45.3307 44.9687 45.2581C45.0941 45.1942 45.1961 45.0922 45.26 44.9667C45.3327 44.8241 45.3327 44.6374 45.3327 44.2641V39.7307C45.3327 39.3574 45.3327 39.1707 45.26 39.0281C45.1961 38.9026 45.0941 38.8006 44.9687 38.7367C44.8261 38.6641 44.6394 38.6641 44.266 38.6641H39.7327C39.3593 38.6641 39.1726 38.6641 39.03 38.7367C38.9046 38.8006 38.8026 38.9026 38.7387 39.0281C38.666 39.1707 38.666 39.3574 38.666 39.7307V44.2641C38.666 44.6374 38.666 44.8241 38.7387 44.9667C38.8026 45.0922 38.9046 45.1942 39.03 45.2581C39.1726 45.3307 39.3593 45.3307 39.7327 45.3307ZM19.7327 25.3307H24.266C24.6394 25.3307 24.8261 25.3307 24.9687 25.2581C25.0941 25.1942 25.1961 25.0922 25.26 24.9667C25.3327 24.8241 25.3327 24.6374 25.3327 24.2641V19.7307C25.3327 19.3574 25.3327 19.1707 25.26 19.0281C25.1961 18.9026 25.0941 18.8006 24.9687 18.7367C24.8261 18.6641 24.6394 18.6641 24.266 18.6641H19.7327C19.3593 18.6641 19.1726 18.6641 19.03 18.7367C18.9046 18.8006 18.8026 18.9026 18.7387 19.0281C18.666 19.1707 18.666 19.3574 18.666 19.7307V24.2641C18.666 24.6374 18.666 24.8241 18.7387 24.9667C18.8026 25.0922 18.9046 25.1942 19.03 25.2581C19.1726 25.3307 19.3593 25.3307 19.7327 25.3307Z" stroke="#102353" stroke-width="2" stroke-linecap="round" stroke-linejoin="round"/>
</svg>
