<svg width="64" height="64" viewBox="0 0 64 64" fill="none" xmlns="http://www.w3.org/2000/svg">
<rect width="64" height="64" rx="12" fill="#F1F6FF"/>
<path d="M42.6673 29.3307V25.0641C42.6673 22.8239 42.6673 21.7037 42.2313 20.8481C41.8478 20.0955 41.2359 19.4835 40.4833 19.1C39.6276 18.6641 38.5075 18.6641 36.2673 18.6641H27.734C25.4938 18.6641 24.3737 18.6641 23.518 19.1C22.7654 19.4835 22.1535 20.0955 21.77 20.8481C21.334 21.7037 21.334 22.8239 21.334 25.0641V38.9307C21.334 41.1709 21.334 42.291 21.77 43.1467C22.1535 43.8993 22.7654 44.5113 23.518 44.8948C24.3737 45.3307 25.4938 45.3307 27.734 45.3307H30.0007M33.334 30.6641H26.6673M30.6673 35.9974H26.6673M37.334 25.3307H26.6673M41.6673 38.6641V36.3307C41.6673 35.0421 40.6226 33.9974 39.334 33.9974C38.0453 33.9974 37.0007 35.0421 37.0007 36.3307V38.6641M36.8007 43.9974H41.8673C42.6141 43.9974 42.9874 43.9974 43.2726 43.8521C43.5235 43.7242 43.7275 43.5203 43.8553 43.2694C44.0006 42.9842 44.0006 42.6108 44.0006 41.8641V40.7974C44.0006 40.0507 44.0006 39.6773 43.8553 39.3921C43.7275 39.1412 43.5235 38.9372 43.2726 38.8094C42.9874 38.6641 42.6141 38.6641 41.8673 38.6641H36.8007C36.0539 38.6641 35.6805 38.6641 35.3953 38.8094C35.1444 38.9372 34.9405 39.1412 34.8126 39.3921C34.6673 39.6773 34.6673 40.0507 34.6673 40.7974V41.8641C34.6673 42.6108 34.6673 42.9842 34.8126 43.2694C34.9405 43.5203 35.1444 43.7242 35.3953 43.8521C35.6805 43.9974 36.0539 43.9974 36.8007 43.9974Z" stroke="#102353" stroke-width="2" stroke-linecap="round" stroke-linejoin="round"/>
</svg>
