<svg width="64" height="64" viewBox="0 0 64 64" fill="none" xmlns="http://www.w3.org/2000/svg">
<rect width="64" height="64" rx="12" fill="#F1F6FF"/>
<path d="M27.9993 31.9974L30.666 34.6641L36.666 28.6641M39.8676 22.6621C40.1421 23.3261 40.6692 23.8539 41.3328 24.1295L43.6597 25.0934C44.3237 25.3684 44.8513 25.8961 45.1264 26.5601C45.4015 27.2242 45.4015 27.9704 45.1264 28.6345L44.1632 30.9598C43.8881 31.6242 43.8877 32.3711 44.1641 33.0352L45.1256 35.3598C45.2619 35.6887 45.3322 36.0413 45.3322 36.3973C45.3323 36.7534 45.2622 37.106 45.1259 37.4349C44.9897 37.7639 44.7899 38.0628 44.5381 38.3145C44.2863 38.5662 43.9874 38.7659 43.6584 38.902L41.3332 39.8652C40.6691 40.1398 40.1413 40.6668 39.8658 41.3304L38.9019 43.6574C38.6269 44.3215 38.0993 44.8491 37.4352 45.1242C36.7712 45.3993 36.025 45.3993 35.361 45.1242L33.0357 44.161C32.3716 43.8866 31.6258 43.8872 30.9621 44.1626L28.6352 45.1251C27.9715 45.3995 27.226 45.3993 26.5625 45.1244C25.899 44.8496 25.3717 44.3226 25.0964 43.6592L24.1323 41.3315C23.8578 40.6675 23.3307 40.1397 22.6671 39.8641L20.3402 38.9002C19.6765 38.6253 19.149 38.098 18.8739 37.4343C18.5987 36.7706 18.5983 36.0248 18.8728 35.3608L19.836 33.0355C20.1104 32.3714 20.1098 31.6255 19.8344 30.9618L18.8726 28.6331C18.7363 28.3042 18.6661 27.9516 18.666 27.5956C18.666 27.2395 18.7361 26.8869 18.8723 26.558C19.0086 26.229 19.2083 25.9301 19.4601 25.6784C19.7119 25.4267 20.0108 25.227 20.3398 25.0909L22.6651 24.1277C23.3285 23.8534 23.856 23.327 24.1318 22.6641L25.0956 20.3371C25.3707 19.6731 25.8983 19.1454 26.5623 18.8704C27.2264 18.5953 27.9725 18.5953 28.6366 18.8704L30.9618 19.8335C31.6259 20.1079 32.3718 20.1074 33.0354 19.832L35.3633 18.8719C36.0273 18.5969 36.7733 18.597 37.4372 18.872C38.1011 19.147 38.6286 19.6745 38.9038 20.3384L39.8679 22.6661L39.8676 22.6621Z" stroke="#102353" stroke-width="2" stroke-linecap="round" stroke-linejoin="round"/>
</svg>
