<svg width="20" height="20" viewBox="0 0 20 20" fill="none" xmlns="http://www.w3.org/2000/svg">
<path d="M16.9308 3.4668C15.6561 2.8819 14.2892 2.45097 12.8599 2.20416C12.8339 2.1994 12.8079 2.2113 12.7945 2.23511C12.6187 2.54779 12.4239 2.9557 12.2876 3.27632C10.7503 3.04618 9.22099 3.04618 7.71527 3.27632C7.57887 2.94858 7.37707 2.54779 7.20048 2.23511C7.18707 2.2121 7.16107 2.20019 7.13504 2.20416C5.70659 2.45018 4.33963 2.88111 3.06411 3.4668C3.05307 3.47156 3.04361 3.47951 3.03732 3.48982C0.444493 7.36345 -0.265792 11.1419 0.0826501 14.8735C0.0842267 14.8917 0.0944749 14.9092 0.108665 14.9203C1.81934 16.1765 3.47642 16.9392 5.10273 17.4447C5.12876 17.4527 5.15634 17.4432 5.1729 17.4217C5.55761 16.8964 5.90054 16.3424 6.19456 15.7599C6.21192 15.7258 6.19535 15.6853 6.15989 15.6718C5.61594 15.4655 5.098 15.2139 4.59977 14.9282C4.56037 14.9052 4.55721 14.8488 4.59347 14.8218C4.69831 14.7433 4.80318 14.6615 4.9033 14.579C4.92141 14.5639 4.94665 14.5607 4.96794 14.5703C8.24107 16.0647 11.7846 16.0647 15.0191 14.5703C15.0404 14.56 15.0657 14.5631 15.0846 14.5782C15.1847 14.6607 15.2895 14.7433 15.3952 14.8218C15.4314 14.8488 15.4291 14.9052 15.3897 14.9282C14.8914 15.2195 14.3735 15.4655 13.8288 15.671C13.7933 15.6845 13.7775 15.7258 13.7949 15.7599C14.0952 16.3416 14.4381 16.8956 14.8157 17.4209C14.8315 17.4432 14.8599 17.4527 14.8859 17.4447C16.5201 16.9392 18.1772 16.1765 19.8879 14.9203C19.9028 14.9092 19.9123 14.8925 19.9139 14.8742C20.3309 10.5601 19.2154 6.81269 16.9568 3.49061C16.9513 3.47951 16.9419 3.47156 16.9308 3.4668ZM6.68335 12.6013C5.69792 12.6013 4.88594 11.6966 4.88594 10.5855C4.88594 9.47446 5.68217 8.56976 6.68335 8.56976C7.69239 8.56976 8.49651 9.48241 8.48073 10.5855C8.48073 11.6966 7.68451 12.6013 6.68335 12.6013ZM13.329 12.6013C12.3435 12.6013 11.5316 11.6966 11.5316 10.5855C11.5316 9.47446 12.3278 8.56976 13.329 8.56976C14.338 8.56976 15.1421 9.48241 15.1264 10.5855C15.1264 11.6966 14.338 12.6013 13.329 12.6013Z" fill="#102353"/>
</svg>
